#define Full_width 16
#define Full_height 16
static unsigned char Full_bits[] = {
   0x00, 0x00, 0xfe, 0x7f, 0x06, 0x60, 0x0a, 0x50, 0x12, 0x48, 0x22, 0x44,
   0x42, 0x42, 0x82, 0x41, 0x82, 0x41, 0x42, 0x42, 0x22, 0x44, 0x12, 0x48,
   0x0a, 0x50, 0x06, 0x60, 0xfe, 0x7f, 0x00, 0x00 };
