#define tall_width 16
#define tall_height 16
static unsigned char tall_bits[] = {
   0x00, 0x00, 0xfe, 0x7f, 0x42, 0x40, 0x42, 0x40, 0x42, 0x40, 0x42, 0x40,
   0x42, 0x40, 0xc2, 0x7f, 0x42, 0x40, 0x42, 0x40, 0x42, 0x40, 0x42, 0x40,
   0x42, 0x40, 0x42, 0x40, 0xfe, 0x7f, 0x00, 0x00 };
