#define vol1_width 16
#define vol1_height 16
static unsigned char vol1_bits[] = {
   0x00, 0x00, 0x00, 0x00, 0x00, 0x01, 0x80, 0x01, 0xc0, 0x01, 0xfc, 0x01,
   0xfc, 0x05, 0xfc, 0x05, 0xfc, 0x05, 0xfc, 0x05, 0xfc, 0x01, 0xc0, 0x01,
   0x80, 0x01, 0x00, 0x01, 0x00, 0x00, 0x00, 0x00 };
